<?xml version="1.0" encoding="utf-8" standalone="no"?>
<!DOCTYPE svg PUBLIC "-//W3C//DTD SVG 1.1//EN"
  "http://www.w3.org/Graphics/SVG/1.1/DTD/svg11.dtd">
<svg xmlns:xlink="http://www.w3.org/1999/xlink" width="432pt" height="288pt" viewBox="0 0 432 288" xmlns="http://www.w3.org/2000/svg" version="1.1">
 <metadata>
  <rdf:RDF xmlns:dc="http://purl.org/dc/elements/1.1/" xmlns:cc="http://creativecommons.org/ns#" xmlns:rdf="http://www.w3.org/1999/02/22-rdf-syntax-ns#">
   <cc:Work>
    <dc:type rdf:resource="http://purl.org/dc/dcmitype/StillImage"/>
    <dc:date>2023-10-15T18:10:58.828453</dc:date>
    <dc:format>image/svg+xml</dc:format>
    <dc:creator>
     <cc:Agent>
      <dc:title>Matplotlib v3.5.1, https://matplotlib.org/</dc:title>
     </cc:Agent>
    </dc:creator>
   </cc:Work>
  </rdf:RDF>
 </metadata>
 <defs>
  <style type="text/css">*{stroke-linejoin: round; stroke-linecap: butt}</style>
 </defs>
 <g id="figure_1">
  <g id="patch_1">
   <path d="M 0 288 
L 432 288 
L 432 0 
L 0 0 
L 0 288 
z
" style="fill: none"/>
  </g>
  <g id="axes_1">
   <g id="patch_2">
    <path d="M 54 252 
L 388.8 252 
L 388.8 34.56 
L 54 34.56 
z
" style="fill: #ffffff"/>
   </g>
   <g id="matplotlib.axis_1">
    <g id="xtick_1">
     <g id="line2d_1">
      <defs>
       <path id="mb7c01a93c1" d="M 0 0 
L 0 3.5 
" style="stroke: #000000; stroke-width: 0.8"/>
      </defs>
      <g>
       <use xlink:href="#mb7c01a93c1" x="69.065924" y="252" style="stroke: #000000; stroke-width: 0.8"/>
      </g>
     </g>
     <g id="text_1">
      <!-- 0 -->
      <g transform="translate(65.884674 266.598437)scale(0.1 -0.1)">
       <defs>
        <path id="DejaVuSans-30" d="M 2034 4250 
Q 1547 4250 1301 3770 
Q 1056 3291 1056 2328 
Q 1056 1369 1301 889 
Q 1547 409 2034 409 
Q 2525 409 2770 889 
Q 3016 1369 3016 2328 
Q 3016 3291 2770 3770 
Q 2525 4250 2034 4250 
z
M 2034 4750 
Q 2819 4750 3233 4129 
Q 3647 3509 3647 2328 
Q 3647 1150 3233 529 
Q 2819 -91 2034 -91 
Q 1250 -91 836 529 
Q 422 1150 422 2328 
Q 422 3509 836 4129 
Q 1250 4750 2034 4750 
z
" transform="scale(0.015625)"/>
       </defs>
       <use xlink:href="#DejaVuSans-30"/>
      </g>
     </g>
    </g>
    <g id="xtick_2">
     <g id="line2d_2">
      <g>
       <use xlink:href="#mb7c01a93c1" x="107.130411" y="252" style="stroke: #000000; stroke-width: 0.8"/>
      </g>
     </g>
     <g id="text_2">
      <!-- 250 -->
      <g transform="translate(97.586661 266.598437)scale(0.1 -0.1)">
       <defs>
        <path id="DejaVuSans-32" d="M 1228 531 
L 3431 531 
L 3431 0 
L 469 0 
L 469 531 
Q 828 903 1448 1529 
Q 2069 2156 2228 2338 
Q 2531 2678 2651 2914 
Q 2772 3150 2772 3378 
Q 2772 3750 2511 3984 
Q 2250 4219 1831 4219 
Q 1534 4219 1204 4116 
Q 875 4013 500 3803 
L 500 4441 
Q 881 4594 1212 4672 
Q 1544 4750 1819 4750 
Q 2544 4750 2975 4387 
Q 3406 4025 3406 3419 
Q 3406 3131 3298 2873 
Q 3191 2616 2906 2266 
Q 2828 2175 2409 1742 
Q 1991 1309 1228 531 
z
" transform="scale(0.015625)"/>
        <path id="DejaVuSans-35" d="M 691 4666 
L 3169 4666 
L 3169 4134 
L 1269 4134 
L 1269 2991 
Q 1406 3038 1543 3061 
Q 1681 3084 1819 3084 
Q 2600 3084 3056 2656 
Q 3513 2228 3513 1497 
Q 3513 744 3044 326 
Q 2575 -91 1722 -91 
Q 1428 -91 1123 -41 
Q 819 9 494 109 
L 494 744 
Q 775 591 1075 516 
Q 1375 441 1709 441 
Q 2250 441 2565 725 
Q 2881 1009 2881 1497 
Q 2881 1984 2565 2268 
Q 2250 2553 1709 2553 
Q 1456 2553 1204 2497 
Q 953 2441 691 2322 
L 691 4666 
z
" transform="scale(0.015625)"/>
       </defs>
       <use xlink:href="#DejaVuSans-32"/>
       <use xlink:href="#DejaVuSans-35" x="63.623047"/>
       <use xlink:href="#DejaVuSans-30" x="127.246094"/>
      </g>
     </g>
    </g>
    <g id="xtick_3">
     <g id="line2d_3">
      <g>
       <use xlink:href="#mb7c01a93c1" x="145.194897" y="252" style="stroke: #000000; stroke-width: 0.8"/>
      </g>
     </g>
     <g id="text_3">
      <!-- 500 -->
      <g transform="translate(135.651147 266.598437)scale(0.1 -0.1)">
       <use xlink:href="#DejaVuSans-35"/>
       <use xlink:href="#DejaVuSans-30" x="63.623047"/>
       <use xlink:href="#DejaVuSans-30" x="127.246094"/>
      </g>
     </g>
    </g>
    <g id="xtick_4">
     <g id="line2d_4">
      <g>
       <use xlink:href="#mb7c01a93c1" x="183.259384" y="252" style="stroke: #000000; stroke-width: 0.8"/>
      </g>
     </g>
     <g id="text_4">
      <!-- 750 -->
      <g transform="translate(173.715634 266.598437)scale(0.1 -0.1)">
       <defs>
        <path id="DejaVuSans-37" d="M 525 4666 
L 3525 4666 
L 3525 4397 
L 1831 0 
L 1172 0 
L 2766 4134 
L 525 4134 
L 525 4666 
z
" transform="scale(0.015625)"/>
       </defs>
       <use xlink:href="#DejaVuSans-37"/>
       <use xlink:href="#DejaVuSans-35" x="63.623047"/>
       <use xlink:href="#DejaVuSans-30" x="127.246094"/>
      </g>
     </g>
    </g>
    <g id="xtick_5">
     <g id="line2d_5">
      <g>
       <use xlink:href="#mb7c01a93c1" x="221.323871" y="252" style="stroke: #000000; stroke-width: 0.8"/>
      </g>
     </g>
     <g id="text_5">
      <!-- 1000 -->
      <g transform="translate(208.598871 266.598437)scale(0.1 -0.1)">
       <defs>
        <path id="DejaVuSans-31" d="M 794 531 
L 1825 531 
L 1825 4091 
L 703 3866 
L 703 4441 
L 1819 4666 
L 2450 4666 
L 2450 531 
L 3481 531 
L 3481 0 
L 794 0 
L 794 531 
z
" transform="scale(0.015625)"/>
       </defs>
       <use xlink:href="#DejaVuSans-31"/>
       <use xlink:href="#DejaVuSans-30" x="63.623047"/>
       <use xlink:href="#DejaVuSans-30" x="127.246094"/>
       <use xlink:href="#DejaVuSans-30" x="190.869141"/>
      </g>
     </g>
    </g>
    <g id="xtick_6">
     <g id="line2d_6">
      <g>
       <use xlink:href="#mb7c01a93c1" x="259.388358" y="252" style="stroke: #000000; stroke-width: 0.8"/>
      </g>
     </g>
     <g id="text_6">
      <!-- 1250 -->
      <g transform="translate(246.663358 266.598437)scale(0.1 -0.1)">
       <use xlink:href="#DejaVuSans-31"/>
       <use xlink:href="#DejaVuSans-32" x="63.623047"/>
       <use xlink:href="#DejaVuSans-35" x="127.246094"/>
       <use xlink:href="#DejaVuSans-30" x="190.869141"/>
      </g>
     </g>
    </g>
    <g id="xtick_7">
     <g id="line2d_7">
      <g>
       <use xlink:href="#mb7c01a93c1" x="297.452845" y="252" style="stroke: #000000; stroke-width: 0.8"/>
      </g>
     </g>
     <g id="text_7">
      <!-- 1500 -->
      <g transform="translate(284.727845 266.598437)scale(0.1 -0.1)">
       <use xlink:href="#DejaVuSans-31"/>
       <use xlink:href="#DejaVuSans-35" x="63.623047"/>
       <use xlink:href="#DejaVuSans-30" x="127.246094"/>
       <use xlink:href="#DejaVuSans-30" x="190.869141"/>
      </g>
     </g>
    </g>
    <g id="xtick_8">
     <g id="line2d_8">
      <g>
       <use xlink:href="#mb7c01a93c1" x="335.517331" y="252" style="stroke: #000000; stroke-width: 0.8"/>
      </g>
     </g>
     <g id="text_8">
      <!-- 1750 -->
      <g transform="translate(322.792331 266.598437)scale(0.1 -0.1)">
       <use xlink:href="#DejaVuSans-31"/>
       <use xlink:href="#DejaVuSans-37" x="63.623047"/>
       <use xlink:href="#DejaVuSans-35" x="127.246094"/>
       <use xlink:href="#DejaVuSans-30" x="190.869141"/>
      </g>
     </g>
    </g>
    <g id="xtick_9">
     <g id="line2d_9">
      <g>
       <use xlink:href="#mb7c01a93c1" x="373.581818" y="252" style="stroke: #000000; stroke-width: 0.8"/>
      </g>
     </g>
     <g id="text_9">
      <!-- 2000 -->
      <g transform="translate(360.856818 266.598437)scale(0.1 -0.1)">
       <use xlink:href="#DejaVuSans-32"/>
       <use xlink:href="#DejaVuSans-30" x="63.623047"/>
       <use xlink:href="#DejaVuSans-30" x="127.246094"/>
       <use xlink:href="#DejaVuSans-30" x="190.869141"/>
      </g>
     </g>
    </g>
    <g id="text_10">
     <!-- Time step [] -->
     <g transform="translate(191.271094 280.276563)scale(0.1 -0.1)">
      <defs>
       <path id="DejaVuSans-54" d="M -19 4666 
L 3928 4666 
L 3928 4134 
L 2272 4134 
L 2272 0 
L 1638 0 
L 1638 4134 
L -19 4134 
L -19 4666 
z
" transform="scale(0.015625)"/>
       <path id="DejaVuSans-69" d="M 603 3500 
L 1178 3500 
L 1178 0 
L 603 0 
L 603 3500 
z
M 603 4863 
L 1178 4863 
L 1178 4134 
L 603 4134 
L 603 4863 
z
" transform="scale(0.015625)"/>
       <path id="DejaVuSans-6d" d="M 3328 2828 
Q 3544 3216 3844 3400 
Q 4144 3584 4550 3584 
Q 5097 3584 5394 3201 
Q 5691 2819 5691 2113 
L 5691 0 
L 5113 0 
L 5113 2094 
Q 5113 2597 4934 2840 
Q 4756 3084 4391 3084 
Q 3944 3084 3684 2787 
Q 3425 2491 3425 1978 
L 3425 0 
L 2847 0 
L 2847 2094 
Q 2847 2600 2669 2842 
Q 2491 3084 2119 3084 
Q 1678 3084 1418 2786 
Q 1159 2488 1159 1978 
L 1159 0 
L 581 0 
L 581 3500 
L 1159 3500 
L 1159 2956 
Q 1356 3278 1631 3431 
Q 1906 3584 2284 3584 
Q 2666 3584 2933 3390 
Q 3200 3197 3328 2828 
z
" transform="scale(0.015625)"/>
       <path id="DejaVuSans-65" d="M 3597 1894 
L 3597 1613 
L 953 1613 
Q 991 1019 1311 708 
Q 1631 397 2203 397 
Q 2534 397 2845 478 
Q 3156 559 3463 722 
L 3463 178 
Q 3153 47 2828 -22 
Q 2503 -91 2169 -91 
Q 1331 -91 842 396 
Q 353 884 353 1716 
Q 353 2575 817 3079 
Q 1281 3584 2069 3584 
Q 2775 3584 3186 3129 
Q 3597 2675 3597 1894 
z
M 3022 2063 
Q 3016 2534 2758 2815 
Q 2500 3097 2075 3097 
Q 1594 3097 1305 2825 
Q 1016 2553 972 2059 
L 3022 2063 
z
" transform="scale(0.015625)"/>
       <path id="DejaVuSans-20" transform="scale(0.015625)"/>
       <path id="DejaVuSans-73" d="M 2834 3397 
L 2834 2853 
Q 2591 2978 2328 3040 
Q 2066 3103 1784 3103 
Q 1356 3103 1142 2972 
Q 928 2841 928 2578 
Q 928 2378 1081 2264 
Q 1234 2150 1697 2047 
L 1894 2003 
Q 2506 1872 2764 1633 
Q 3022 1394 3022 966 
Q 3022 478 2636 193 
Q 2250 -91 1575 -91 
Q 1294 -91 989 -36 
Q 684 19 347 128 
L 347 722 
Q 666 556 975 473 
Q 1284 391 1588 391 
Q 1994 391 2212 530 
Q 2431 669 2431 922 
Q 2431 1156 2273 1281 
Q 2116 1406 1581 1522 
L 1381 1569 
Q 847 1681 609 1914 
Q 372 2147 372 2553 
Q 372 3047 722 3315 
Q 1072 3584 1716 3584 
Q 2034 3584 2315 3537 
Q 2597 3491 2834 3397 
z
" transform="scale(0.015625)"/>
       <path id="DejaVuSans-74" d="M 1172 4494 
L 1172 3500 
L 2356 3500 
L 2356 3053 
L 1172 3053 
L 1172 1153 
Q 1172 725 1289 603 
Q 1406 481 1766 481 
L 2356 481 
L 2356 0 
L 1766 0 
Q 1100 0 847 248 
Q 594 497 594 1153 
L 594 3053 
L 172 3053 
L 172 3500 
L 594 3500 
L 594 4494 
L 1172 4494 
z
" transform="scale(0.015625)"/>
       <path id="DejaVuSans-70" d="M 1159 525 
L 1159 -1331 
L 581 -1331 
L 581 3500 
L 1159 3500 
L 1159 2969 
Q 1341 3281 1617 3432 
Q 1894 3584 2278 3584 
Q 2916 3584 3314 3078 
Q 3713 2572 3713 1747 
Q 3713 922 3314 415 
Q 2916 -91 2278 -91 
Q 1894 -91 1617 61 
Q 1341 213 1159 525 
z
M 3116 1747 
Q 3116 2381 2855 2742 
Q 2594 3103 2138 3103 
Q 1681 3103 1420 2742 
Q 1159 2381 1159 1747 
Q 1159 1113 1420 752 
Q 1681 391 2138 391 
Q 2594 391 2855 752 
Q 3116 1113 3116 1747 
z
" transform="scale(0.015625)"/>
       <path id="DejaVuSans-5b" d="M 550 4863 
L 1875 4863 
L 1875 4416 
L 1125 4416 
L 1125 -397 
L 1875 -397 
L 1875 -844 
L 550 -844 
L 550 4863 
z
" transform="scale(0.015625)"/>
       <path id="DejaVuSans-5d" d="M 1947 4863 
L 1947 -844 
L 622 -844 
L 622 -397 
L 1369 -397 
L 1369 4416 
L 622 4416 
L 622 4863 
L 1947 4863 
z
" transform="scale(0.015625)"/>
      </defs>
      <use xlink:href="#DejaVuSans-54"/>
      <use xlink:href="#DejaVuSans-69" x="57.958984"/>
      <use xlink:href="#DejaVuSans-6d" x="85.742188"/>
      <use xlink:href="#DejaVuSans-65" x="183.154297"/>
      <use xlink:href="#DejaVuSans-20" x="244.677734"/>
      <use xlink:href="#DejaVuSans-73" x="276.464844"/>
      <use xlink:href="#DejaVuSans-74" x="328.564453"/>
      <use xlink:href="#DejaVuSans-65" x="367.773438"/>
      <use xlink:href="#DejaVuSans-70" x="429.296875"/>
      <use xlink:href="#DejaVuSans-20" x="492.773438"/>
      <use xlink:href="#DejaVuSans-5b" x="524.560547"/>
      <use xlink:href="#DejaVuSans-5d" x="563.574219"/>
     </g>
    </g>
   </g>
   <g id="matplotlib.axis_2">
    <g id="ytick_1">
     <g id="line2d_10">
      <defs>
       <path id="mea4b0894cb" d="M 0 0 
L -3.5 0 
" style="stroke: #000000; stroke-width: 0.8"/>
      </defs>
      <g>
       <use xlink:href="#mea4b0894cb" x="54" y="247.354072" style="stroke: #000000; stroke-width: 0.8"/>
      </g>
     </g>
     <g id="text_11">
      <!-- 10000 -->
      <g transform="translate(15.1875 251.15329)scale(0.1 -0.1)">
       <use xlink:href="#DejaVuSans-31"/>
       <use xlink:href="#DejaVuSans-30" x="63.623047"/>
       <use xlink:href="#DejaVuSans-30" x="127.246094"/>
       <use xlink:href="#DejaVuSans-30" x="190.869141"/>
       <use xlink:href="#DejaVuSans-30" x="254.492188"/>
      </g>
     </g>
    </g>
    <g id="ytick_2">
     <g id="line2d_11">
      <g>
       <use xlink:href="#mea4b0894cb" x="54" y="205.020877" style="stroke: #000000; stroke-width: 0.8"/>
      </g>
     </g>
     <g id="text_12">
      <!-- 15000 -->
      <g transform="translate(15.1875 208.820096)scale(0.1 -0.1)">
       <use xlink:href="#DejaVuSans-31"/>
       <use xlink:href="#DejaVuSans-35" x="63.623047"/>
       <use xlink:href="#DejaVuSans-30" x="127.246094"/>
       <use xlink:href="#DejaVuSans-30" x="190.869141"/>
       <use xlink:href="#DejaVuSans-30" x="254.492188"/>
      </g>
     </g>
    </g>
    <g id="ytick_3">
     <g id="line2d_12">
      <g>
       <use xlink:href="#mea4b0894cb" x="54" y="162.687683" style="stroke: #000000; stroke-width: 0.8"/>
      </g>
     </g>
     <g id="text_13">
      <!-- 20000 -->
      <g transform="translate(15.1875 166.486902)scale(0.1 -0.1)">
       <use xlink:href="#DejaVuSans-32"/>
       <use xlink:href="#DejaVuSans-30" x="63.623047"/>
       <use xlink:href="#DejaVuSans-30" x="127.246094"/>
       <use xlink:href="#DejaVuSans-30" x="190.869141"/>
       <use xlink:href="#DejaVuSans-30" x="254.492188"/>
      </g>
     </g>
    </g>
    <g id="ytick_4">
     <g id="line2d_13">
      <g>
       <use xlink:href="#mea4b0894cb" x="54" y="120.354489" style="stroke: #000000; stroke-width: 0.8"/>
      </g>
     </g>
     <g id="text_14">
      <!-- 25000 -->
      <g transform="translate(15.1875 124.153708)scale(0.1 -0.1)">
       <use xlink:href="#DejaVuSans-32"/>
       <use xlink:href="#DejaVuSans-35" x="63.623047"/>
       <use xlink:href="#DejaVuSans-30" x="127.246094"/>
       <use xlink:href="#DejaVuSans-30" x="190.869141"/>
       <use xlink:href="#DejaVuSans-30" x="254.492188"/>
      </g>
     </g>
    </g>
    <g id="ytick_5">
     <g id="line2d_14">
      <g>
       <use xlink:href="#mea4b0894cb" x="54" y="78.021295" style="stroke: #000000; stroke-width: 0.8"/>
      </g>
     </g>
     <g id="text_15">
      <!-- 30000 -->
      <g transform="translate(15.1875 81.820513)scale(0.1 -0.1)">
       <defs>
        <path id="DejaVuSans-33" d="M 2597 2516 
Q 3050 2419 3304 2112 
Q 3559 1806 3559 1356 
Q 3559 666 3084 287 
Q 2609 -91 1734 -91 
Q 1441 -91 1130 -33 
Q 819 25 488 141 
L 488 750 
Q 750 597 1062 519 
Q 1375 441 1716 441 
Q 2309 441 2620 675 
Q 2931 909 2931 1356 
Q 2931 1769 2642 2001 
Q 2353 2234 1838 2234 
L 1294 2234 
L 1294 2753 
L 1863 2753 
Q 2328 2753 2575 2939 
Q 2822 3125 2822 3475 
Q 2822 3834 2567 4026 
Q 2313 4219 1838 4219 
Q 1578 4219 1281 4162 
Q 984 4106 628 3988 
L 628 4550 
Q 988 4650 1302 4700 
Q 1616 4750 1894 4750 
Q 2613 4750 3031 4423 
Q 3450 4097 3450 3541 
Q 3450 3153 3228 2886 
Q 3006 2619 2597 2516 
z
" transform="scale(0.015625)"/>
       </defs>
       <use xlink:href="#DejaVuSans-33"/>
       <use xlink:href="#DejaVuSans-30" x="63.623047"/>
       <use xlink:href="#DejaVuSans-30" x="127.246094"/>
       <use xlink:href="#DejaVuSans-30" x="190.869141"/>
       <use xlink:href="#DejaVuSans-30" x="254.492188"/>
      </g>
     </g>
    </g>
    <g id="ytick_6">
     <g id="line2d_15">
      <g>
       <use xlink:href="#mea4b0894cb" x="54" y="35.6881" style="stroke: #000000; stroke-width: 0.8"/>
      </g>
     </g>
     <g id="text_16">
      <!-- 35000 -->
      <g transform="translate(15.1875 39.487319)scale(0.1 -0.1)">
       <use xlink:href="#DejaVuSans-33"/>
       <use xlink:href="#DejaVuSans-35" x="63.623047"/>
       <use xlink:href="#DejaVuSans-30" x="127.246094"/>
       <use xlink:href="#DejaVuSans-30" x="190.869141"/>
       <use xlink:href="#DejaVuSans-30" x="254.492188"/>
      </g>
     </g>
    </g>
    <g id="text_17">
     <!-- Energy [DPD Units] -->
     <g transform="translate(9.107812 191.362813)rotate(-90)scale(0.1 -0.1)">
      <defs>
       <path id="DejaVuSans-45" d="M 628 4666 
L 3578 4666 
L 3578 4134 
L 1259 4134 
L 1259 2753 
L 3481 2753 
L 3481 2222 
L 1259 2222 
L 1259 531 
L 3634 531 
L 3634 0 
L 628 0 
L 628 4666 
z
" transform="scale(0.015625)"/>
       <path id="DejaVuSans-6e" d="M 3513 2113 
L 3513 0 
L 2938 0 
L 2938 2094 
Q 2938 2591 2744 2837 
Q 2550 3084 2163 3084 
Q 1697 3084 1428 2787 
Q 1159 2491 1159 1978 
L 1159 0 
L 581 0 
L 581 3500 
L 1159 3500 
L 1159 2956 
Q 1366 3272 1645 3428 
Q 1925 3584 2291 3584 
Q 2894 3584 3203 3211 
Q 3513 2838 3513 2113 
z
" transform="scale(0.015625)"/>
       <path id="DejaVuSans-72" d="M 2631 2963 
Q 2534 3019 2420 3045 
Q 2306 3072 2169 3072 
Q 1681 3072 1420 2755 
Q 1159 2438 1159 1844 
L 1159 0 
L 581 0 
L 581 3500 
L 1159 3500 
L 1159 2956 
Q 1341 3275 1631 3429 
Q 1922 3584 2338 3584 
Q 2397 3584 2469 3576 
Q 2541 3569 2628 3553 
L 2631 2963 
z
" transform="scale(0.015625)"/>
       <path id="DejaVuSans-67" d="M 2906 1791 
Q 2906 2416 2648 2759 
Q 2391 3103 1925 3103 
Q 1463 3103 1205 2759 
Q 947 2416 947 1791 
Q 947 1169 1205 825 
Q 1463 481 1925 481 
Q 2391 481 2648 825 
Q 2906 1169 2906 1791 
z
M 3481 434 
Q 3481 -459 3084 -895 
Q 2688 -1331 1869 -1331 
Q 1566 -1331 1297 -1286 
Q 1028 -1241 775 -1147 
L 775 -588 
Q 1028 -725 1275 -790 
Q 1522 -856 1778 -856 
Q 2344 -856 2625 -561 
Q 2906 -266 2906 331 
L 2906 616 
Q 2728 306 2450 153 
Q 2172 0 1784 0 
Q 1141 0 747 490 
Q 353 981 353 1791 
Q 353 2603 747 3093 
Q 1141 3584 1784 3584 
Q 2172 3584 2450 3431 
Q 2728 3278 2906 2969 
L 2906 3500 
L 3481 3500 
L 3481 434 
z
" transform="scale(0.015625)"/>
       <path id="DejaVuSans-79" d="M 2059 -325 
Q 1816 -950 1584 -1140 
Q 1353 -1331 966 -1331 
L 506 -1331 
L 506 -850 
L 844 -850 
Q 1081 -850 1212 -737 
Q 1344 -625 1503 -206 
L 1606 56 
L 191 3500 
L 800 3500 
L 1894 763 
L 2988 3500 
L 3597 3500 
L 2059 -325 
z
" transform="scale(0.015625)"/>
       <path id="DejaVuSans-44" d="M 1259 4147 
L 1259 519 
L 2022 519 
Q 2988 519 3436 956 
Q 3884 1394 3884 2338 
Q 3884 3275 3436 3711 
Q 2988 4147 2022 4147 
L 1259 4147 
z
M 628 4666 
L 1925 4666 
Q 3281 4666 3915 4102 
Q 4550 3538 4550 2338 
Q 4550 1131 3912 565 
Q 3275 0 1925 0 
L 628 0 
L 628 4666 
z
" transform="scale(0.015625)"/>
       <path id="DejaVuSans-50" d="M 1259 4147 
L 1259 2394 
L 2053 2394 
Q 2494 2394 2734 2622 
Q 2975 2850 2975 3272 
Q 2975 3691 2734 3919 
Q 2494 4147 2053 4147 
L 1259 4147 
z
M 628 4666 
L 2053 4666 
Q 2838 4666 3239 4311 
Q 3641 3956 3641 3272 
Q 3641 2581 3239 2228 
Q 2838 1875 2053 1875 
L 1259 1875 
L 1259 0 
L 628 0 
L 628 4666 
z
" transform="scale(0.015625)"/>
       <path id="DejaVuSans-55" d="M 556 4666 
L 1191 4666 
L 1191 1831 
Q 1191 1081 1462 751 
Q 1734 422 2344 422 
Q 2950 422 3222 751 
Q 3494 1081 3494 1831 
L 3494 4666 
L 4128 4666 
L 4128 1753 
Q 4128 841 3676 375 
Q 3225 -91 2344 -91 
Q 1459 -91 1007 375 
Q 556 841 556 1753 
L 556 4666 
z
" transform="scale(0.015625)"/>
      </defs>
      <use xlink:href="#DejaVuSans-45"/>
      <use xlink:href="#DejaVuSans-6e" x="63.183594"/>
      <use xlink:href="#DejaVuSans-65" x="126.5625"/>
      <use xlink:href="#DejaVuSans-72" x="188.085938"/>
      <use xlink:href="#DejaVuSans-67" x="227.449219"/>
      <use xlink:href="#DejaVuSans-79" x="290.925781"/>
      <use xlink:href="#DejaVuSans-20" x="350.105469"/>
      <use xlink:href="#DejaVuSans-5b" x="381.892578"/>
      <use xlink:href="#DejaVuSans-44" x="420.90625"/>
      <use xlink:href="#DejaVuSans-50" x="497.908203"/>
      <use xlink:href="#DejaVuSans-44" x="558.210938"/>
      <use xlink:href="#DejaVuSans-20" x="635.212891"/>
      <use xlink:href="#DejaVuSans-55" x="667"/>
      <use xlink:href="#DejaVuSans-6e" x="740.193359"/>
      <use xlink:href="#DejaVuSans-69" x="803.572266"/>
      <use xlink:href="#DejaVuSans-74" x="831.355469"/>
      <use xlink:href="#DejaVuSans-73" x="870.564453"/>
      <use xlink:href="#DejaVuSans-5d" x="922.664062"/>
     </g>
    </g>
   </g>
   <g id="line2d_16">
    <path d="M 69.218182 44.680202 
L 69.979472 44.461662 
L 73.481404 44.558376 
L 75.917531 44.530725 
L 78.353659 44.555793 
L 84.139461 44.543663 
L 85.66204 44.516976 
L 97.385902 44.549719 
L 97.994934 44.559562 
L 99.060739 44.568025 
L 104.998799 44.576522 
L 108.043958 44.571301 
L 142.454254 44.552942 
L 143.367802 44.564555 
L 150.676184 44.55921 
L 153.264569 44.528604 
L 154.330374 44.533411 
L 154.939406 44.48195 
L 156.005212 44.499472 
L 158.745855 44.462968 
L 160.57295 44.483062 
L 161.638756 44.48479 
L 168.947137 44.466992 
L 180.214225 44.497377 
L 180.975515 44.506651 
L 183.5639 44.515545 
L 185.08648 44.484736 
L 187.674865 44.496469 
L 189.045186 44.517298 
L 190.110992 44.496604 
L 192.851635 44.470442 
L 194.67873 44.500225 
L 207.925172 44.522246 
L 209.600009 44.520275 
L 210.361299 44.513718 
L 211.274847 44.520761 
L 215.081295 44.524179 
L 215.994843 44.531431 
L 217.060649 44.538808 
L 222.237419 44.527675 
L 224.064514 44.520395 
L 225.587094 44.499454 
L 227.261931 44.522593 
L 230.002574 44.520492 
L 232.286443 44.530972 
L 232.743217 44.53684 
L 234.113539 44.53583 
L 240.508372 44.554664 
L 246.141916 44.546948 
L 247.816754 44.560099 
L 249.187075 44.572864 
L 277.507054 44.513089 
L 278.116085 44.525132 
L 278.725117 44.506162 
L 279.334149 44.535077 
L 280.856728 44.510621 
L 282.22705 44.511506 
L 283.597371 44.523467 
L 286.64253 44.533323 
L 288.774142 44.538974 
L 291.362527 44.54354 
L 296.387039 44.583745 
L 297.75736 44.572572 
L 301.107035 44.612284 
L 302.325099 44.614224 
L 303.086389 44.615523 
L 309.937996 44.578114 
L 311.460576 44.567838 
L 313.287671 44.562079 
L 330.340561 44.5975 
L 331.558625 44.576778 
L 332.319915 44.587089 
L 373.581818 44.586049 
L 373.581818 44.586049 
" clip-path="url(#p9d77ee9522)" style="fill: none; stroke: #ff0000; stroke-width: 1.5; stroke-linecap: square"/>
   </g>
   <g id="line2d_17">
    <path d="M 69.218182 136.044788 
L 69.522698 142.351071 
L 69.979472 151.585665 
L 70.13173 152.654576 
L 70.283987 152.600267 
L 70.588503 150.385168 
L 71.197535 145.855894 
L 71.654309 144.096039 
L 72.263341 141.874703 
L 73.176888 137.918537 
L 73.481404 137.611868 
L 73.938178 137.457263 
L 74.242694 137.076282 
L 75.003984 135.56209 
L 75.3085 135.562913 
L 75.613016 135.806554 
L 76.374305 135.815115 
L 76.831079 136.462918 
L 76.983337 136.384574 
L 77.744627 135.123457 
L 78.201401 135.384875 
L 78.505917 135.916915 
L 78.96269 136.87036 
L 79.267206 137.069117 
L 79.571722 137.177185 
L 80.48527 137.952392 
L 80.637528 137.926048 
L 81.24656 137.435104 
L 81.551076 137.577046 
L 81.855591 137.523367 
L 82.160107 137.024812 
L 82.616881 136.086997 
L 82.921397 135.976613 
L 83.225913 136.375636 
L 83.682687 137.132377 
L 83.834945 137.117336 
L 84.139461 136.538865 
L 84.596234 135.466858 
L 84.748492 135.44387 
L 85.053008 136.113941 
L 85.509782 137.508121 
L 85.966556 137.926716 
L 86.271072 138.215412 
L 86.575588 138.64042 
L 86.727846 138.670023 
L 87.032362 138.386671 
L 87.641393 137.744266 
L 87.945909 137.408806 
L 88.707199 135.370542 
L 88.859457 135.356167 
L 89.011715 135.543351 
L 89.925263 137.678086 
L 90.229779 137.306045 
L 90.686552 136.57242 
L 90.83881 136.601267 
L 91.6001 137.376524 
L 91.904616 137.321589 
L 92.209132 137.271592 
L 92.513648 137.610975 
L 92.818164 137.982632 
L 92.970422 138.037182 
L 93.274937 137.812166 
L 93.427195 137.681299 
L 93.579453 137.704516 
L 94.188485 138.328882 
L 94.797517 136.842441 
L 95.406549 137.324468 
L 96.015581 136.444201 
L 96.167838 136.516488 
L 96.472354 137.325767 
L 96.929128 138.443889 
L 97.233644 138.521209 
L 98.147192 137.537073 
L 98.451708 137.020753 
L 98.603966 137.013916 
L 99.212997 137.57192 
L 99.517513 137.610556 
L 99.822029 137.304856 
L 100.431061 136.10293 
L 101.040093 135.77109 
L 101.344609 136.040539 
L 101.649125 136.691511 
L 102.258156 138.614797 
L 102.410414 138.745728 
L 102.562672 138.677456 
L 102.867188 137.995081 
L 103.47622 136.304512 
L 103.628478 136.230425 
L 104.085252 136.44423 
L 104.389768 136.339046 
L 104.542026 136.432274 
L 104.846541 137.017874 
L 105.151057 137.657431 
L 105.303315 137.742991 
L 105.455573 137.585254 
L 105.760089 136.579707 
L 106.064605 135.434414 
L 106.216863 135.259551 
L 106.369121 135.462042 
L 106.978153 137.008314 
L 107.282669 136.79845 
L 107.739442 136.479651 
L 108.043958 136.543104 
L 108.500732 137.022349 
L 109.262022 137.956657 
L 109.566538 137.494682 
L 110.023312 136.466175 
L 110.327828 136.349802 
L 110.784601 136.542501 
L 111.241375 136.711153 
L 111.850407 136.95203 
L 112.154923 136.476046 
L 112.763955 135.06523 
L 112.916213 134.907136 
L 113.068471 134.927887 
L 113.372986 135.626731 
L 114.438792 139.528129 
L 114.59105 139.54788 
L 114.895566 139.262762 
L 115.656856 137.853138 
L 116.11363 136.575146 
L 116.418145 136.305427 
L 117.483951 136.490465 
L 117.788467 137.267466 
L 118.245241 138.655051 
L 118.854273 139.341211 
L 119.006531 139.362803 
L 119.311046 138.93544 
L 119.920078 137.285555 
L 120.52911 135.817455 
L 120.681368 135.70304 
L 120.833626 135.815445 
L 121.138142 136.273578 
L 121.2904 136.309852 
L 121.747174 136.065744 
L 121.899432 136.208627 
L 122.356205 137.355259 
L 122.660721 137.927254 
L 122.812979 137.957196 
L 123.878785 136.794935 
L 124.031043 136.747805 
L 124.94459 137.29718 
L 125.401364 137.80771 
L 125.553622 137.823655 
L 125.858138 137.482218 
L 126.314912 136.730733 
L 126.46717 136.771639 
L 127.076202 137.443376 
L 127.837491 136.796335 
L 128.446523 137.335495 
L 129.360071 137.489926 
L 129.664587 137.488839 
L 129.969103 137.136478 
L 130.578135 136.074824 
L 130.88265 135.949296 
L 131.339424 136.054116 
L 131.796198 136.192845 
L 132.100714 136.691283 
L 132.557488 137.827645 
L 132.709746 137.883538 
L 133.014262 137.356896 
L 133.775551 135.402246 
L 133.927809 135.26384 
L 134.080067 135.279222 
L 134.384583 135.755889 
L 134.993615 136.868348 
L 135.298131 137.095907 
L 135.450389 137.027068 
L 135.907163 136.522145 
L 136.059421 136.587234 
L 136.82071 137.543551 
L 137.125226 137.128586 
L 137.582 136.582911 
L 137.886516 136.200887 
L 138.647806 134.646138 
L 138.800064 134.627879 
L 139.10458 134.978302 
L 139.865869 136.284427 
L 140.170385 136.432964 
L 140.627159 136.776477 
L 140.779417 136.787125 
L 140.931675 136.628764 
L 141.540707 135.544431 
L 141.692965 135.745634 
L 142.301996 137.212827 
L 142.606512 137.093266 
L 143.063286 136.952914 
L 143.52006 136.716864 
L 144.738124 136.056895 
L 144.890382 136.147281 
L 145.651671 137.32363 
L 145.956187 137.213248 
L 146.565219 136.699006 
L 146.869735 136.57152 
L 147.174251 136.749395 
L 147.93554 137.864179 
L 148.240056 137.510869 
L 148.69683 136.863837 
L 148.849088 136.818589 
L 149.153604 137.088722 
L 149.610378 137.709018 
L 149.914894 137.784967 
L 150.21941 137.449534 
L 150.523926 137.103092 
L 150.828441 137.352623 
L 151.132957 137.648051 
L 151.285215 137.555254 
L 152.046505 136.133173 
L 152.198763 136.159631 
L 152.655537 136.699898 
L 153.112311 137.220617 
L 153.569085 137.406801 
L 154.178116 138.165485 
L 154.787148 139.52681 
L 154.939406 139.467291 
L 155.852954 137.408559 
L 156.005212 137.430533 
L 156.461986 137.8167 
L 156.766501 137.732855 
L 157.071017 137.063168 
L 157.680049 135.371662 
L 157.832307 135.425376 
L 158.136823 136.144866 
L 158.593597 137.159749 
L 158.898113 137.32363 
L 159.202629 137.149229 
L 159.81166 136.334981 
L 160.420692 136.313149 
L 161.029724 137.219332 
L 161.791014 136.541635 
L 162.247788 136.749049 
L 163.009077 136.578236 
L 163.618109 136.936365 
L 163.922625 136.79341 
L 164.227141 136.993979 
L 164.836173 137.945484 
L 165.140689 138.587686 
L 165.292946 138.676842 
L 165.445204 138.512978 
L 165.901978 137.078959 
L 166.206494 136.343115 
L 166.967784 135.598838 
L 167.2723 135.211765 
L 167.576816 135.468917 
L 167.881332 135.738041 
L 168.490363 135.604791 
L 168.794879 135.728868 
L 169.099395 135.808196 
L 169.403911 136.275988 
L 169.860685 137.077521 
L 170.165201 136.978692 
L 170.469717 136.706018 
L 170.926491 136.055025 
L 171.231006 136.100558 
L 171.992296 136.756849 
L 172.144554 136.62395 
L 172.753586 135.607142 
L 173.058102 135.82448 
L 173.514876 136.255597 
L 173.971649 136.265341 
L 174.276165 136.75912 
L 174.580681 137.160459 
L 174.885197 137.079752 
L 175.494229 136.684593 
L 176.255519 136.756729 
L 176.712293 136.879422 
L 177.016808 136.720106 
L 177.321324 136.428291 
L 177.473582 136.417469 
L 177.778098 136.733445 
L 178.234872 137.323623 
L 178.691646 137.842006 
L 179.14842 138.599401 
L 179.452936 139.116545 
L 179.605194 139.102546 
L 180.214225 138.449805 
L 180.518741 137.926849 
L 180.975515 137.072549 
L 181.280031 136.934663 
L 182.498095 136.901001 
L 183.107126 136.552038 
L 183.259384 136.694242 
L 183.868416 137.742237 
L 184.020674 137.627092 
L 184.32519 136.942613 
L 184.781964 136.009872 
L 185.695511 135.033999 
L 186.000027 135.616793 
L 186.609059 137.055447 
L 187.218091 137.704019 
L 187.370349 137.63396 
L 187.674865 136.992006 
L 188.131639 135.968277 
L 188.283896 135.876919 
L 188.588412 136.041577 
L 189.349702 136.693245 
L 189.958734 137.544531 
L 190.26325 137.497555 
L 190.567766 137.140991 
L 191.02454 136.408124 
L 191.176797 136.37131 
L 191.481313 136.516943 
L 191.633571 136.446128 
L 192.242603 135.606521 
L 192.394861 135.730567 
L 193.003893 136.963937 
L 193.156151 136.779271 
L 193.612925 135.432732 
L 193.765183 135.354018 
L 194.069698 135.853272 
L 194.526472 136.773422 
L 195.135504 137.466069 
L 195.592278 137.850161 
L 195.896794 137.43267 
L 196.505826 136.277567 
L 196.658084 136.345068 
L 197.419373 137.443934 
L 197.571631 137.39249 
L 197.876147 136.820672 
L 198.332921 136.010344 
L 198.637437 136.134192 
L 198.941953 136.581509 
L 199.550985 138.096591 
L 199.8555 138.334819 
L 200.312274 138.345726 
L 200.61679 138.35345 
L 201.073564 138.508196 
L 201.37808 137.944392 
L 201.834854 136.761235 
L 202.13937 136.645765 
L 202.443886 136.688695 
L 202.748401 136.345237 
L 203.052917 135.869567 
L 203.205175 135.926385 
L 203.661949 136.689767 
L 203.814207 136.641126 
L 204.118723 136.116162 
L 204.727755 134.923685 
L 204.880013 134.952675 
L 205.184529 135.562408 
L 205.79356 137.01413 
L 206.402592 138.125975 
L 206.55485 138.157573 
L 206.707108 137.984417 
L 207.31614 136.727052 
L 207.620656 137.01153 
L 208.07743 137.683376 
L 208.381946 137.608691 
L 208.838719 136.991106 
L 209.447751 135.574212 
L 209.752267 134.948603 
L 209.904525 134.981915 
L 210.056783 135.315374 
L 210.818073 138.475948 
L 210.970331 138.557789 
L 211.274847 138.203173 
L 211.579362 137.832407 
L 211.883878 137.834669 
L 212.340652 137.926077 
L 213.2542 137.740923 
L 213.710974 138.241532 
L 213.863232 138.123396 
L 214.472263 136.979964 
L 214.624521 136.97678 
L 214.929037 137.598799 
L 215.385811 138.523715 
L 215.538069 138.452262 
L 215.842585 137.638256 
L 216.147101 136.849745 
L 216.451617 136.702311 
L 217.060649 136.859908 
L 217.66968 137.265214 
L 217.821938 137.148452 
L 218.278712 136.292026 
L 218.583228 136.31283 
L 218.887744 136.324656 
L 219.344518 136.053345 
L 219.649034 136.199565 
L 219.95355 136.433686 
L 220.714839 136.408027 
L 221.171613 136.788225 
L 221.628387 137.187545 
L 221.780645 137.165955 
L 222.085161 136.758748 
L 222.389677 136.39288 
L 222.694193 136.520417 
L 223.912256 137.95719 
L 224.216772 138.677455 
L 224.36903 138.763522 
L 224.521288 138.522332 
L 224.978062 137.199194 
L 225.13032 137.115634 
L 225.434836 137.545601 
L 225.891609 138.037369 
L 226.043867 138.056732 
L 226.348383 137.64541 
L 226.805157 136.746191 
L 226.957415 136.726382 
L 227.261931 137.381388 
L 227.718705 138.558826 
L 227.870963 138.600653 
L 228.175479 138.12487 
L 229.089026 136.591922 
L 229.393542 136.304738 
L 230.002574 136.122729 
L 230.154832 136.079141 
L 230.30709 136.156079 
L 230.611606 136.807195 
L 231.220638 138.537131 
L 231.525153 138.947063 
L 231.829669 139.031863 
L 232.134185 138.594395 
L 232.438701 137.93989 
L 233.352249 134.554537 
L 233.504507 134.833842 
L 234.265797 137.565246 
L 234.418054 137.62184 
L 234.72257 137.220409 
L 235.179344 136.065105 
L 235.48386 135.872192 
L 235.788376 136.097051 
L 236.092892 136.511859 
L 236.397408 136.504256 
L 236.701924 136.473233 
L 237.00644 137.066484 
L 237.310955 138.34349 
L 237.919987 141.167942 
L 238.072245 141.216054 
L 238.224503 140.877851 
L 238.529019 139.422376 
L 238.985793 136.672557 
L 239.290309 136.036707 
L 239.442567 136.143722 
L 239.899341 136.813221 
L 240.203856 136.687314 
L 240.66063 136.468146 
L 240.965146 136.469782 
L 241.269662 136.16264 
L 241.574178 135.754243 
L 241.726436 135.695731 
L 242.030952 136.098117 
L 242.639984 137.098592 
L 242.9445 137.182017 
L 243.858047 136.42366 
L 244.314821 136.18206 
L 244.619337 135.726798 
L 244.923853 135.187311 
L 245.076111 135.102231 
L 245.228369 135.187595 
L 245.685143 136.017983 
L 246.294174 137.20462 
L 246.446432 137.305063 
L 247.055464 137.15846 
L 247.512238 137.515314 
L 248.12127 137.62677 
L 248.425786 137.897961 
L 248.578044 137.741623 
L 249.339333 136.148283 
L 249.643849 136.621901 
L 250.100623 137.620886 
L 250.252881 137.5895 
L 251.166429 136.101601 
L 251.470945 136.237518 
L 252.232234 137.277569 
L 253.450298 137.906767 
L 253.754814 137.600741 
L 254.516104 136.5152 
L 254.668361 136.480351 
L 254.820619 136.597221 
L 255.277393 137.423658 
L 255.429651 137.372983 
L 255.886425 136.799884 
L 256.190941 136.930455 
L 256.647715 137.152315 
L 256.799973 137.172083 
L 256.952231 137.053577 
L 257.71352 135.844871 
L 258.018036 136.03168 
L 258.47481 136.569868 
L 258.779326 136.592716 
L 259.540616 136.438313 
L 259.99739 136.71286 
L 260.301905 136.732163 
L 260.606421 137.191469 
L 260.910937 137.495345 
L 261.215453 136.977802 
L 261.519969 136.461784 
L 261.824485 136.357329 
L 262.129001 136.548347 
L 262.433517 137.026549 
L 263.042549 138.014232 
L 263.347064 137.909603 
L 263.65158 137.80148 
L 264.260612 137.755127 
L 264.717386 136.840149 
L 265.17416 136.121406 
L 265.478676 136.236468 
L 265.783192 136.553462 
L 266.239965 137.721181 
L 266.696739 138.683841 
L 266.848997 138.735082 
L 267.001255 138.603785 
L 267.305771 137.865293 
L 267.762545 136.613195 
L 268.067061 136.442902 
L 268.371577 136.845747 
L 268.828351 137.587887 
L 269.58964 138.553939 
L 269.894156 138.489602 
L 270.198672 138.016034 
L 270.807704 136.487982 
L 270.959962 136.4147 
L 271.568994 136.835857 
L 271.873509 136.396448 
L 272.330283 135.663325 
L 272.482541 135.644223 
L 272.787057 135.994369 
L 273.243831 136.883722 
L 273.548347 136.875959 
L 273.852863 136.803371 
L 274.157379 137.063202 
L 274.76641 137.813126 
L 274.918668 137.76833 
L 275.223184 137.053439 
L 275.679958 136.08852 
L 275.984474 135.911611 
L 276.28899 135.913489 
L 276.441248 136.076465 
L 276.745764 136.947332 
L 277.05028 137.846278 
L 277.202538 138.000601 
L 277.507054 137.926447 
L 277.811569 137.665437 
L 278.268343 137.000425 
L 278.420601 137.091944 
L 278.877375 137.837668 
L 279.029633 137.658167 
L 279.486407 136.63308 
L 279.638665 136.613121 
L 279.790923 136.855481 
L 280.552212 138.8274 
L 280.70447 138.736123 
L 281.161244 137.695137 
L 281.770276 136.276352 
L 281.922534 136.274058 
L 282.531566 136.803718 
L 282.98834 137.829579 
L 283.140598 137.860473 
L 283.445113 137.590614 
L 283.749629 137.282099 
L 283.901887 137.25691 
L 284.206403 137.601831 
L 284.663177 138.045168 
L 284.815435 138.009764 
L 285.272209 137.243177 
L 285.728983 136.613033 
L 286.185757 136.46754 
L 286.490272 136.670372 
L 286.794788 137.448704 
L 287.251562 138.556633 
L 287.40382 138.532797 
L 287.708336 137.646314 
L 288.16511 136.242956 
L 288.317368 136.085107 
L 288.469626 136.145759 
L 289.230915 136.936674 
L 289.687689 137.237922 
L 290.144463 137.65929 
L 290.448979 137.200553 
L 290.753495 136.728031 
L 291.058011 136.722947 
L 291.362527 136.860162 
L 291.971559 136.663343 
L 292.58059 138.07083 
L 292.732848 137.970686 
L 293.646396 135.710772 
L 293.798654 135.582214 
L 293.950912 135.67134 
L 294.255428 136.355162 
L 294.559944 137.078201 
L 295.016717 137.521442 
L 295.473491 137.618037 
L 295.778007 137.567971 
L 296.082523 137.126678 
L 296.387039 136.580656 
L 296.539297 136.480474 
L 296.691555 136.659101 
L 297.452845 138.549673 
L 297.75736 138.948571 
L 298.061876 138.987612 
L 298.366392 138.362108 
L 299.432198 134.646317 
L 299.736714 134.539175 
L 300.04123 134.897112 
L 300.802519 136.16846 
L 301.107035 136.235909 
L 301.411551 136.197669 
L 301.716067 136.545838 
L 302.629615 138.471265 
L 302.781873 138.450213 
L 303.69542 137.5603 
L 304.152194 137.657937 
L 304.913484 137.106415 
L 305.218 137.185025 
L 305.827032 136.919454 
L 306.740579 137.825015 
L 307.197353 138.131882 
L 307.806385 138.795175 
L 307.958643 138.637275 
L 308.567675 137.113322 
L 308.719933 137.11578 
L 309.328964 137.760077 
L 309.481222 137.54575 
L 309.937996 135.966964 
L 310.242512 135.085565 
L 310.39477 134.999395 
L 310.547028 135.187261 
L 311.460576 137.574635 
L 311.612834 137.550241 
L 311.765092 137.250141 
L 312.374123 135.132514 
L 312.526381 135.118581 
L 312.983155 135.939179 
L 313.287671 136.462306 
L 313.439929 136.50629 
L 313.592187 136.405499 
L 314.201219 135.211191 
L 314.353477 135.267955 
L 314.657993 135.996454 
L 314.962509 136.703205 
L 315.114766 136.872923 
L 315.267024 136.851408 
L 315.723798 136.184009 
L 316.180572 135.252311 
L 316.33283 135.223236 
L 316.637346 135.666423 
L 317.09412 136.454025 
L 317.550894 136.839175 
L 317.703152 136.816957 
L 318.312183 136.117527 
L 318.768957 136.434093 
L 319.682505 136.928852 
L 320.291537 136.780151 
L 320.748311 137.121064 
L 321.205084 136.983843 
L 321.966374 137.625625 
L 322.423148 137.572674 
L 322.879922 137.200776 
L 323.336696 136.763942 
L 323.641212 136.8047 
L 323.945727 137.278462 
L 324.250243 137.922609 
L 324.402501 138.002178 
L 324.554759 137.847748 
L 325.163791 136.653942 
L 325.772823 136.906689 
L 326.381855 136.207191 
L 326.838628 135.980822 
L 327.752176 137.114896 
L 328.20895 137.496212 
L 328.361208 137.399284 
L 329.274756 136.098385 
L 329.883787 135.750982 
L 330.188303 135.917191 
L 330.645077 136.247327 
L 330.949593 136.432479 
L 331.710883 137.296401 
L 332.015399 137.363783 
L 332.319915 137.457175 
L 332.62443 137.374781 
L 333.537978 136.724471 
L 333.842494 136.849864 
L 334.299268 137.115955 
L 334.756042 136.676142 
L 335.365073 135.895925 
L 335.669589 135.886425 
L 335.974105 136.335092 
L 336.583137 137.516845 
L 336.887653 137.566927 
L 337.648943 137.054327 
L 337.953459 137.384427 
L 338.410232 138.082741 
L 338.714748 137.891861 
L 339.019264 137.455222 
L 339.780554 135.941877 
L 340.08507 135.808664 
L 340.389586 135.876401 
L 340.694102 136.229489 
L 341.150875 136.917623 
L 341.759907 137.176716 
L 342.064423 137.513658 
L 342.216681 137.411691 
L 342.673455 136.365787 
L 342.977971 135.692899 
L 343.130229 135.684947 
L 343.434745 136.217207 
L 343.739261 136.808209 
L 344.043776 136.828765 
L 344.652808 136.566186 
L 344.805066 136.708197 
L 345.414098 137.861203 
L 345.566356 137.868889 
L 345.870872 137.188289 
L 346.327646 136.288441 
L 346.479904 136.297325 
L 346.936677 136.806175 
L 347.241193 137.240401 
L 347.393451 137.303906 
L 347.850225 137.017052 
L 348.002483 137.152428 
L 348.306999 137.946244 
L 348.611515 138.841526 
L 348.763773 139.023708 
L 348.916031 138.942759 
L 349.220547 138.146601 
L 349.829578 136.333447 
L 349.981836 136.259411 
L 350.134094 136.443446 
L 350.43861 137.385375 
L 351.047642 139.435981 
L 351.1999 139.556828 
L 351.352158 139.388043 
L 351.656674 138.394611 
L 352.265706 136.181509 
L 352.417964 135.983828 
L 352.570221 136.029078 
L 353.026995 136.666295 
L 353.788285 138.636636 
L 353.940543 138.618472 
L 355.158607 137.321292 
L 355.463122 137.31819 
L 355.767638 137.358103 
L 356.224412 137.0378 
L 357.594734 136.04811 
L 358.051508 136.447602 
L 358.660539 137.210341 
L 359.269571 137.867812 
L 359.421829 137.756162 
L 359.878603 136.874099 
L 360.183119 136.799066 
L 360.487635 137.043459 
L 360.944409 137.619582 
L 361.401182 137.641826 
L 361.705698 137.509194 
L 362.010214 137.405415 
L 362.31473 137.485693 
L 362.771504 137.127807 
L 363.07602 137.089552 
L 363.532794 136.838218 
L 363.83731 136.958349 
L 364.446341 137.465183 
L 364.750857 137.120831 
L 365.055373 136.77208 
L 365.207631 136.806738 
L 365.512147 137.322078 
L 366.121179 138.563549 
L 366.577953 138.963048 
L 366.730211 138.943989 
L 367.034726 138.477891 
L 367.643758 137.319228 
L 368.405048 136.31057 
L 368.557306 136.308481 
L 368.709564 136.467806 
L 369.470854 138.297468 
L 369.623112 138.239714 
L 370.232143 137.294125 
L 370.536659 137.399624 
L 370.841175 137.53875 
L 371.145691 137.450774 
L 372.059239 136.639299 
L 372.363755 136.581967 
L 372.66827 136.810939 
L 373.125044 137.114242 
L 373.42956 137.011672 
L 373.581818 136.933163 
L 373.581818 136.933163 
" clip-path="url(#p9d77ee9522)" style="fill: none; stroke: #008000; stroke-width: 1.5; stroke-linecap: square"/>
   </g>
   <g id="line2d_18">
    <path d="M 69.218182 240.655874 
L 69.674956 230.432535 
L 69.979472 224.896457 
L 70.13173 223.835885 
L 70.283987 223.912401 
L 70.588503 226.194676 
L 71.197535 230.725941 
L 71.654309 232.480783 
L 72.263341 234.693112 
L 73.329146 238.870516 
L 73.633662 238.992228 
L 73.938178 239.103275 
L 74.242694 239.480495 
L 75.003984 241.019487 
L 75.3085 240.99393 
L 75.613016 240.737224 
L 76.374305 240.754806 
L 76.831079 240.065494 
L 76.983337 240.140844 
L 77.592369 241.402361 
L 77.744627 241.449458 
L 78.353659 240.994645 
L 79.114948 239.570786 
L 79.876238 239.076082 
L 80.637528 238.621063 
L 81.24656 239.135209 
L 81.551076 238.983137 
L 81.855591 239.030161 
L 82.007849 239.190194 
L 82.616881 240.481675 
L 82.921397 240.596322 
L 83.225913 240.189284 
L 83.682687 239.426618 
L 83.834945 239.436038 
L 84.139461 240.025258 
L 84.596234 241.11323 
L 84.748492 241.13935 
L 85.053008 240.455628 
L 85.509782 239.019919 
L 85.966556 238.618615 
L 86.271072 238.337332 
L 86.575588 237.883981 
L 86.727846 237.864486 
L 87.18462 238.352396 
L 87.489135 238.716528 
L 87.793651 238.898115 
L 87.945909 239.120407 
L 88.707199 241.184855 
L 88.859457 241.199564 
L 89.011715 241.016473 
L 89.925263 238.855025 
L 90.077521 238.974865 
L 90.686552 239.984527 
L 90.83881 239.959886 
L 91.447842 239.264867 
L 91.752358 239.141531 
L 92.209132 239.276876 
L 92.513648 238.929819 
L 92.818164 238.549998 
L 92.970422 238.486016 
L 93.274937 238.721258 
L 93.427195 238.870937 
L 93.579453 238.841074 
L 94.188485 238.168194 
L 94.797517 239.714195 
L 95.406549 239.20713 
L 96.015581 240.137423 
L 96.167838 240.065905 
L 96.472354 239.232976 
L 96.77687 238.351136 
L 97.081386 238.016956 
L 97.233644 238.038695 
L 98.147192 239.028984 
L 98.451708 239.588183 
L 98.603966 239.586114 
L 99.212997 239.019435 
L 99.517513 238.980829 
L 99.822029 239.288418 
L 100.431061 240.49645 
L 101.040093 240.828669 
L 101.344609 240.55537 
L 101.649125 239.909236 
L 102.258156 237.946948 
L 102.410414 237.826865 
L 102.562672 237.888011 
L 102.867188 238.577762 
L 103.47622 240.295583 
L 103.628478 240.366888 
L 104.085252 240.156254 
L 104.389768 240.26771 
L 104.542026 240.183506 
L 104.846541 239.585611 
L 105.151057 238.93395 
L 105.303315 238.845884 
L 105.455573 239.004404 
L 105.760089 240.028655 
L 106.064605 241.198169 
L 106.216863 241.374822 
L 106.369121 241.159999 
L 106.978153 239.569107 
L 107.282669 239.802612 
L 107.739442 240.123779 
L 108.043958 240.048657 
L 108.500732 239.559896 
L 108.957506 238.880515 
L 109.262022 238.600584 
L 109.566538 239.075784 
L 110.023312 240.131765 
L 110.327828 240.23131 
L 110.632343 240.057616 
L 111.089117 239.939439 
L 111.850407 239.591607 
L 112.154923 240.085006 
L 112.763955 241.506976 
L 112.916213 241.664706 
L 113.068471 241.652122 
L 113.372986 240.944027 
L 114.438792 237.016111 
L 114.59105 237.00424 
L 114.895566 237.291133 
L 115.656856 238.707063 
L 116.11363 239.995966 
L 116.418145 240.262232 
L 117.179435 240.049731 
L 117.331693 240.131649 
L 117.483951 240.083209 
L 117.788467 239.291482 
L 118.245241 237.888932 
L 118.854273 237.207538 
L 119.006531 237.191956 
L 119.311046 237.632117 
L 119.920078 239.293184 
L 120.52911 240.77629 
L 120.681368 240.885249 
L 120.833626 240.771753 
L 121.138142 240.275797 
L 121.2904 240.256689 
L 121.747174 240.526932 
L 122.051689 240.076787 
L 122.660721 238.636383 
L 122.812979 238.602581 
L 123.726527 239.645576 
L 124.031043 239.840611 
L 124.94459 239.300792 
L 125.401364 238.771163 
L 125.553622 238.745141 
L 125.858138 239.09598 
L 126.314912 239.878868 
L 126.46717 239.837262 
L 127.076202 239.130986 
L 127.837491 239.80697 
L 128.446523 239.236695 
L 129.360071 239.072661 
L 129.664587 239.075262 
L 129.969103 239.422989 
L 130.578135 240.500007 
L 130.88265 240.622209 
L 131.187166 240.571702 
L 131.948456 240.201566 
L 132.709746 238.640882 
L 133.014262 239.18229 
L 133.775551 241.135888 
L 134.080067 241.286657 
L 134.384583 240.788411 
L 134.993615 239.669752 
L 135.298131 239.443519 
L 135.450389 239.520542 
L 135.907163 240.053127 
L 136.059421 239.983897 
L 136.82071 239.003389 
L 137.277484 239.667645 
L 138.038774 240.72538 
L 138.495548 241.77426 
L 138.800064 241.945832 
L 139.10458 241.59018 
L 139.865869 240.2919 
L 140.170385 240.142708 
L 140.627159 239.787487 
L 140.779417 239.761605 
L 140.931675 239.920927 
L 141.540707 241.045222 
L 141.692965 240.844202 
L 142.301996 239.352687 
L 142.606512 239.498621 
L 143.063286 239.63382 
L 143.52006 239.870275 
L 144.738124 240.544606 
L 144.890382 240.463063 
L 145.651671 239.250445 
L 145.956187 239.365668 
L 146.565219 239.894364 
L 146.869735 240.020251 
L 147.174251 239.844094 
L 147.93554 238.704462 
L 148.240056 239.071614 
L 148.69683 239.744748 
L 148.849088 239.783913 
L 149.153604 239.506047 
L 149.610378 238.876105 
L 149.914894 238.805557 
L 150.21941 239.141343 
L 150.523926 239.497736 
L 150.828441 239.219721 
L 151.132957 238.905839 
L 151.285215 238.994133 
L 152.046505 240.436507 
L 152.198763 240.411964 
L 152.807795 239.642913 
L 153.112311 239.329155 
L 153.569085 239.153663 
L 154.178116 238.396713 
L 154.787148 236.973764 
L 154.939406 237.035119 
L 155.852954 239.113609 
L 156.005212 239.089399 
L 156.461986 238.674963 
L 156.766501 238.755962 
L 157.071017 239.422177 
L 157.680049 241.145345 
L 157.832307 241.077569 
L 158.136823 240.348258 
L 158.441339 239.561931 
L 158.745855 239.188045 
L 159.050371 239.211088 
L 159.354887 239.564303 
L 159.659402 240.071756 
L 159.963918 240.169332 
L 160.268434 240.262863 
L 160.420692 240.194112 
L 161.029724 239.247966 
L 161.791014 239.96095 
L 162.247788 239.746543 
L 163.009077 239.925594 
L 163.618109 239.561828 
L 163.922625 239.723257 
L 164.227141 239.518383 
L 164.836173 238.556268 
L 165.140689 237.890732 
L 165.292946 237.795841 
L 165.445204 237.963594 
L 165.901978 239.416644 
L 166.206494 240.158861 
L 166.51101 240.2948 
L 166.815526 240.553384 
L 167.2723 241.273852 
L 167.576816 241.00718 
L 167.881332 240.732142 
L 168.490363 240.87936 
L 168.794879 240.742814 
L 169.099395 240.680918 
L 169.403911 240.214243 
L 169.860685 239.390951 
L 170.165201 239.501583 
L 170.469717 239.775735 
L 170.926491 240.445445 
L 171.231006 240.395822 
L 171.992296 239.724746 
L 172.144554 239.851776 
L 172.753586 240.89529 
L 173.058102 240.666401 
L 173.514876 240.22235 
L 173.971649 240.237232 
L 174.276165 239.728848 
L 174.580681 239.322066 
L 174.885197 239.397732 
L 175.494229 239.802678 
L 176.255519 239.74638 
L 176.712293 239.613039 
L 177.016808 239.763995 
L 177.321324 240.061851 
L 177.473582 240.072219 
L 177.778098 239.778452 
L 178.234872 239.189285 
L 178.691646 238.662548 
L 179.14842 237.909473 
L 179.452936 237.37647 
L 179.757451 237.545996 
L 180.518741 238.600711 
L 180.975515 239.454562 
L 181.280031 239.591787 
L 182.498095 239.609746 
L 182.954868 239.94067 
L 183.107126 239.994363 
L 183.259384 239.852205 
L 183.868416 238.771829 
L 184.020674 238.901929 
L 184.32519 239.577161 
L 184.629706 240.319192 
L 185.543253 241.497042 
L 185.695511 241.494708 
L 186.000027 240.892132 
L 186.609059 239.453692 
L 187.218091 238.80065 
L 187.370349 238.870723 
L 187.827123 239.945969 
L 188.131639 240.571137 
L 188.283896 240.661862 
L 188.588412 240.48445 
L 189.349702 239.819895 
L 189.958734 238.961088 
L 190.26325 239.023881 
L 190.567766 239.372115 
L 191.02454 240.122857 
L 191.176797 240.160348 
L 191.481313 239.990239 
L 191.633571 240.056854 
L 192.242603 240.935571 
L 192.394861 240.804695 
L 193.003893 239.520279 
L 193.156151 239.697519 
L 193.612925 241.096112 
L 193.765183 241.173461 
L 194.069698 240.643751 
L 194.526472 239.738722 
L 195.287762 238.881072 
L 195.592278 238.658905 
L 195.896794 239.081071 
L 196.505826 240.258554 
L 196.658084 240.196953 
L 197.419373 239.076928 
L 197.571631 239.113003 
L 197.876147 239.694961 
L 198.332921 240.522073 
L 198.637437 240.384149 
L 198.941953 239.959845 
L 199.550985 238.424641 
L 199.8555 238.189048 
L 200.312274 238.185521 
L 200.61679 238.185734 
L 201.073564 238.003231 
L 201.37808 238.585267 
L 201.834854 239.797469 
L 202.13937 239.896144 
L 202.443886 239.834355 
L 202.596144 239.936986 
L 203.052917 240.682287 
L 203.205175 240.62218 
L 203.661949 239.809621 
L 203.814207 239.86877 
L 204.118723 240.407562 
L 204.727755 241.633049 
L 204.880013 241.596573 
L 205.184529 240.972012 
L 205.79356 239.517795 
L 206.402592 238.408437 
L 206.55485 238.378439 
L 206.707108 238.548154 
L 207.163882 239.740805 
L 207.31614 239.845045 
L 207.620656 239.547402 
L 208.07743 238.849408 
L 208.381946 238.936883 
L 208.838719 239.544236 
L 209.447751 240.96655 
L 209.752267 241.612817 
L 209.904525 241.562601 
L 210.056783 241.240665 
L 210.818073 238.042198 
L 210.970331 237.965891 
L 211.122589 238.080279 
L 211.579362 238.711013 
L 211.883878 238.696988 
L 212.340652 238.609366 
L 213.2542 238.811325 
L 213.710974 238.278568 
L 213.863232 238.40767 
L 214.472263 239.586542 
L 214.624521 239.601851 
L 214.929037 238.949201 
L 215.385811 238.009511 
L 215.538069 238.072296 
L 215.842585 238.907949 
L 216.147101 239.718647 
L 216.451617 239.837216 
L 217.060649 239.69936 
L 217.66968 239.282296 
L 217.821938 239.363043 
L 218.278712 240.256395 
L 218.43097 240.298172 
L 218.735486 240.167803 
L 219.040002 240.354859 
L 219.344518 240.486148 
L 219.649034 240.342943 
L 219.95355 240.090253 
L 220.562581 240.178001 
L 220.867097 240.045049 
L 221.780645 239.362867 
L 222.085161 239.783729 
L 222.389677 240.163591 
L 222.694193 240.031045 
L 223.912256 238.598462 
L 224.216772 237.851062 
L 224.36903 237.754449 
L 224.521288 238.005545 
L 224.978062 239.361152 
L 225.13032 239.446701 
L 225.434836 238.976539 
L 225.739351 238.596471 
L 226.043867 238.457564 
L 226.348383 238.879735 
L 226.805157 239.812081 
L 226.957415 239.830594 
L 227.261931 239.161665 
L 227.718705 237.956843 
L 227.870963 237.921181 
L 228.175479 238.410502 
L 229.089026 239.954073 
L 229.5458 240.310839 
L 230.30709 240.39132 
L 230.611606 239.735102 
L 231.372896 237.772506 
L 231.677411 237.506319 
L 231.829669 237.507372 
L 232.134185 237.961262 
L 232.438701 238.586222 
L 233.352249 242.035146 
L 233.504507 241.752852 
L 234.265797 238.988895 
L 234.418054 238.934873 
L 234.72257 239.344787 
L 235.179344 240.525058 
L 235.48386 240.69797 
L 235.636118 240.647878 
L 236.24515 239.995753 
L 236.701924 240.116088 
L 237.00644 239.510546 
L 237.310955 238.232245 
L 237.919987 235.353573 
L 238.072245 235.31304 
L 238.224503 235.659894 
L 238.529019 237.112766 
L 238.985793 239.917113 
L 239.290309 240.550081 
L 239.442567 240.445041 
L 239.899341 239.747034 
L 240.203856 239.891164 
L 240.66063 240.109653 
L 240.965146 240.090839 
L 241.269662 240.401518 
L 241.574178 240.819514 
L 241.726436 240.888272 
L 242.030952 240.461813 
L 242.639984 239.461701 
L 242.9445 239.357862 
L 243.858047 240.13737 
L 244.314821 240.382944 
L 244.771595 241.152215 
L 245.076111 241.47342 
L 245.228369 241.387054 
L 245.685143 240.559471 
L 246.294174 239.355197 
L 246.59869 239.305442 
L 246.903206 239.47815 
L 247.207722 239.298022 
L 247.512238 239.054343 
L 248.12127 238.967106 
L 248.425786 238.662286 
L 248.578044 238.818929 
L 249.339333 240.445217 
L 249.643849 239.955197 
L 250.100623 238.938127 
L 250.252881 238.958037 
L 251.166429 240.487228 
L 251.470945 240.347871 
L 252.384492 239.209059 
L 253.29804 238.652148 
L 253.450298 238.655128 
L 253.754814 238.971336 
L 254.516104 240.063303 
L 254.668361 240.110192 
L 254.820619 239.997164 
L 255.277393 239.131152 
L 255.429651 239.174987 
L 255.886425 239.777414 
L 256.190941 239.646183 
L 256.495457 239.44907 
L 256.799973 239.396013 
L 256.952231 239.502547 
L 257.561262 240.658451 
L 257.71352 240.747904 
L 258.018036 240.564612 
L 258.47481 240.006601 
L 258.779326 239.983903 
L 259.540616 240.144383 
L 259.99739 239.855151 
L 260.301905 239.861113 
L 260.606421 239.387664 
L 260.758679 239.106622 
L 260.910937 239.068019 
L 261.215453 239.609081 
L 261.519969 240.140936 
L 261.824485 240.243111 
L 262.129001 240.048277 
L 262.433517 239.565415 
L 262.890291 238.710422 
L 263.042549 238.567243 
L 263.347064 238.679714 
L 263.65158 238.799238 
L 264.260612 238.83505 
L 264.565128 239.42744 
L 265.17416 240.473427 
L 265.478676 240.34955 
L 265.783192 240.037505 
L 266.239965 238.85659 
L 266.696739 237.890718 
L 266.848997 237.842177 
L 267.001255 237.966396 
L 267.305771 238.704482 
L 267.762545 239.97341 
L 268.067061 240.131126 
L 268.371577 239.725245 
L 268.828351 238.97954 
L 269.58964 237.987957 
L 269.894156 238.059697 
L 270.198672 238.535475 
L 270.807704 240.074662 
L 270.959962 240.155936 
L 271.568994 239.706343 
L 271.873509 240.136368 
L 272.330283 240.898253 
L 272.482541 240.910079 
L 272.787057 240.551657 
L 273.243831 239.645965 
L 273.548347 239.66987 
L 273.852863 239.75581 
L 274.157379 239.494007 
L 274.76641 238.7118 
L 274.918668 238.749675 
L 275.223184 239.49485 
L 275.679958 240.460513 
L 275.984474 240.627658 
L 276.28899 240.637584 
L 276.441248 240.4781 
L 276.745764 239.593247 
L 277.05028 238.670411 
L 277.354796 238.525332 
L 277.811569 238.87144 
L 278.268343 239.566679 
L 278.420601 239.471842 
L 278.877375 238.67206 
L 279.029633 238.868919 
L 279.486407 239.929478 
L 279.638665 239.955231 
L 279.790923 239.709376 
L 280.552212 237.683167 
L 280.70447 237.772005 
L 281.161244 238.826377 
L 281.770276 240.287361 
L 281.922534 240.280191 
L 282.683824 239.39087 
L 282.98834 238.700524 
L 283.140598 238.680372 
L 283.445113 238.950332 
L 283.749629 239.267317 
L 283.901887 239.294126 
L 284.206403 238.929412 
L 284.663177 238.483522 
L 284.815435 238.503229 
L 285.881241 240.023395 
L 286.185757 240.076337 
L 286.490272 239.885953 
L 286.794788 239.097851 
L 287.099304 238.190651 
L 287.251562 237.972084 
L 287.40382 237.986015 
L 287.708336 238.901289 
L 288.16511 240.332733 
L 288.317368 240.497858 
L 288.469626 240.428453 
L 289.230915 239.627968 
L 289.687689 239.33686 
L 290.144463 238.895121 
L 290.296721 239.054821 
L 290.753495 239.854217 
L 290.905753 239.924014 
L 291.514785 239.771147 
L 291.819301 240.034219 
L 291.971559 239.945202 
L 292.58059 238.483227 
L 292.732848 238.580455 
L 293.646396 240.892663 
L 293.798654 241.02447 
L 293.950912 240.941463 
L 294.407686 239.794409 
L 294.712202 239.320243 
L 295.168975 238.998005 
L 295.625749 238.956216 
L 295.778007 239.009143 
L 296.082523 239.456746 
L 296.387039 240.023549 
L 296.539297 240.134424 
L 296.691555 239.959401 
L 297.300587 238.308031 
L 297.75736 237.644461 
L 298.061876 237.591858 
L 298.366392 238.235314 
L 298.823166 240.169171 
L 299.27994 241.709763 
L 299.584456 242.116364 
L 299.736714 242.091273 
L 300.04123 241.724872 
L 300.954777 240.395873 
L 301.563809 240.333519 
L 301.868325 239.756541 
L 302.629615 238.137489 
L 302.781873 238.165488 
L 303.543162 239.029103 
L 303.847678 239.027693 
L 304.152194 238.949722 
L 304.913484 239.51263 
L 305.218 239.434249 
L 305.522516 239.615391 
L 305.827032 239.718619 
L 306.588321 238.837404 
L 307.045095 238.640025 
L 307.501869 238.036902 
L 307.806385 237.799253 
L 307.958643 237.954761 
L 308.567675 239.5064 
L 308.719933 239.49394 
L 309.328964 238.820344 
L 309.481222 239.045217 
L 309.937996 240.631609 
L 310.242512 241.538798 
L 310.39477 241.616744 
L 310.547028 241.428543 
L 311.460576 239.013663 
L 311.612834 239.028807 
L 311.765092 239.330014 
L 312.374123 241.506388 
L 312.526381 241.508251 
L 312.983155 240.658229 
L 313.287671 240.120233 
L 313.439929 240.077496 
L 313.592187 240.168691 
L 314.201219 241.416185 
L 314.353477 241.363504 
L 315.267024 239.732119 
L 315.723798 240.411647 
L 316.180572 241.372519 
L 316.33283 241.398489 
L 316.485088 241.255883 
L 317.09412 240.162952 
L 317.550894 239.772569 
L 317.703152 239.789953 
L 318.312183 240.508445 
L 319.073473 239.991795 
L 319.530247 239.686201 
L 319.834763 239.755654 
L 320.291537 239.852366 
L 320.748311 239.480745 
L 321.205084 239.633783 
L 321.966374 238.985092 
L 322.423148 239.02729 
L 323.03218 239.570438 
L 323.336696 239.843492 
L 323.488954 239.883096 
L 323.793469 239.628609 
L 324.402501 238.582736 
L 324.554759 238.748291 
L 325.163791 239.976492 
L 325.772823 239.704271 
L 326.229597 240.322284 
L 326.838628 240.660786 
L 327.599918 239.598216 
L 327.904434 239.35552 
L 328.20895 239.110484 
L 328.361208 239.209221 
L 329.274756 240.524117 
L 330.036045 240.834847 
L 331.254109 239.706536 
L 331.558625 239.297311 
L 331.863141 239.324596 
L 332.319915 239.150374 
L 332.62443 239.230329 
L 333.537978 239.881153 
L 333.842494 239.767258 
L 334.14701 239.481249 
L 334.299268 239.497863 
L 334.756042 239.936735 
L 335.365073 240.724479 
L 335.669589 240.729869 
L 335.974105 240.280821 
L 336.583137 239.067355 
L 336.887653 239.022294 
L 337.648943 239.541325 
L 337.953459 239.216279 
L 338.410232 238.485066 
L 338.714748 238.692516 
L 339.019264 239.1172 
L 339.780554 240.647188 
L 340.08507 240.78317 
L 340.389586 240.710339 
L 340.694102 240.366334 
L 341.150875 239.656981 
L 341.759907 239.416171 
L 342.064423 239.057896 
L 342.216681 239.146397 
L 343.130229 240.916192 
L 343.434745 240.361786 
L 343.739261 239.75245 
L 344.043776 239.757337 
L 344.652808 240.030621 
L 344.805066 239.897814 
L 345.414098 238.707708 
L 345.566356 238.682608 
L 345.870872 239.393455 
L 346.327646 240.303345 
L 346.632162 240.14978 
L 347.393451 239.257003 
L 347.850225 239.573326 
L 348.002483 239.449717 
L 348.306999 238.647984 
L 348.611515 237.729884 
L 348.763773 237.543937 
L 348.916031 237.626334 
L 349.220547 238.442021 
L 349.829578 240.28747 
L 349.981836 240.355027 
L 350.134094 240.162339 
L 350.590868 238.613012 
L 351.047642 237.122574 
L 351.1999 237.000675 
L 351.352158 237.176161 
L 351.656674 238.185273 
L 352.265706 240.424371 
L 352.417964 240.625939 
L 352.722479 240.393382 
L 353.026995 239.937728 
L 353.788285 237.934994 
L 353.940543 237.962992 
L 355.158607 239.281759 
L 355.463122 239.286671 
L 355.767638 239.234551 
L 356.072154 239.42143 
L 357.442476 240.530187 
L 357.594734 240.544055 
L 358.203766 239.89134 
L 358.508281 239.495276 
L 358.812797 239.212761 
L 359.269571 238.704595 
L 359.421829 238.82096 
L 359.878603 239.734986 
L 360.183119 239.806113 
L 360.487635 239.565238 
L 360.944409 238.985358 
L 361.55344 238.991752 
L 362.010214 239.222273 
L 362.31473 239.115664 
L 362.771504 239.498717 
L 363.07602 239.519664 
L 363.532794 239.788151 
L 363.83731 239.666747 
L 364.446341 239.146906 
L 364.750857 239.49592 
L 365.055373 239.85851 
L 365.207631 239.820408 
L 365.512147 239.29606 
L 366.121179 238.048495 
L 366.577953 237.643521 
L 366.730211 237.669996 
L 367.034726 238.16166 
L 367.643758 239.325765 
L 368.405048 240.351254 
L 368.557306 240.336852 
L 368.709564 240.182436 
L 369.470854 238.284783 
L 369.623112 238.348846 
L 370.232143 239.311856 
L 370.536659 239.18685 
L 370.993433 239.043705 
L 371.297949 239.288052 
L 371.906981 239.804967 
L 372.211497 240.021322 
L 372.516013 239.925167 
L 373.125044 239.466306 
L 373.42956 239.576951 
L 373.581818 239.673346 
L 373.581818 239.673346 
" clip-path="url(#p9d77ee9522)" style="fill: none; stroke: #0000ff; stroke-width: 1.5; stroke-linecap: square"/>
   </g>
   <g id="patch_3">
    <path d="M 54 252 
L 54 34.56 
" style="fill: none; stroke: #000000; stroke-width: 0.8; stroke-linejoin: miter; stroke-linecap: square"/>
   </g>
   <g id="patch_4">
    <path d="M 388.8 252 
L 388.8 34.56 
" style="fill: none; stroke: #000000; stroke-width: 0.8; stroke-linejoin: miter; stroke-linecap: square"/>
   </g>
   <g id="patch_5">
    <path d="M 54 252 
L 388.8 252 
" style="fill: none; stroke: #000000; stroke-width: 0.8; stroke-linejoin: miter; stroke-linecap: square"/>
   </g>
   <g id="patch_6">
    <path d="M 54 34.56 
L 388.8 34.56 
" style="fill: none; stroke: #000000; stroke-width: 0.8; stroke-linejoin: miter; stroke-linecap: square"/>
   </g>
   <g id="legend_1">
    <g id="patch_7">
     <path d="M 267.807813 86.594375 
L 381.8 86.594375 
Q 383.8 86.594375 383.8 84.594375 
L 383.8 41.56 
Q 383.8 39.56 381.8 39.56 
L 267.807813 39.56 
Q 265.807813 39.56 265.807813 41.56 
L 265.807813 84.594375 
Q 265.807813 86.594375 267.807813 86.594375 
z
" style="fill: #ffffff; opacity: 0.8; stroke: #cccccc; stroke-linejoin: miter"/>
    </g>
    <g id="line2d_19">
     <path d="M 269.807813 47.658438 
L 279.807813 47.658438 
L 289.807813 47.658438 
" style="fill: none; stroke: #ff0000; stroke-width: 1.5; stroke-linecap: square"/>
    </g>
    <g id="text_18">
     <!-- Total Energy -->
     <g transform="translate(297.807813 51.158438)scale(0.1 -0.1)">
      <defs>
       <path id="DejaVuSans-6f" d="M 1959 3097 
Q 1497 3097 1228 2736 
Q 959 2375 959 1747 
Q 959 1119 1226 758 
Q 1494 397 1959 397 
Q 2419 397 2687 759 
Q 2956 1122 2956 1747 
Q 2956 2369 2687 2733 
Q 2419 3097 1959 3097 
z
M 1959 3584 
Q 2709 3584 3137 3096 
Q 3566 2609 3566 1747 
Q 3566 888 3137 398 
Q 2709 -91 1959 -91 
Q 1206 -91 779 398 
Q 353 888 353 1747 
Q 353 2609 779 3096 
Q 1206 3584 1959 3584 
z
" transform="scale(0.015625)"/>
       <path id="DejaVuSans-61" d="M 2194 1759 
Q 1497 1759 1228 1600 
Q 959 1441 959 1056 
Q 959 750 1161 570 
Q 1363 391 1709 391 
Q 2188 391 2477 730 
Q 2766 1069 2766 1631 
L 2766 1759 
L 2194 1759 
z
M 3341 1997 
L 3341 0 
L 2766 0 
L 2766 531 
Q 2569 213 2275 61 
Q 1981 -91 1556 -91 
Q 1019 -91 701 211 
Q 384 513 384 1019 
Q 384 1609 779 1909 
Q 1175 2209 1959 2209 
L 2766 2209 
L 2766 2266 
Q 2766 2663 2505 2880 
Q 2244 3097 1772 3097 
Q 1472 3097 1187 3025 
Q 903 2953 641 2809 
L 641 3341 
Q 956 3463 1253 3523 
Q 1550 3584 1831 3584 
Q 2591 3584 2966 3190 
Q 3341 2797 3341 1997 
z
" transform="scale(0.015625)"/>
       <path id="DejaVuSans-6c" d="M 603 4863 
L 1178 4863 
L 1178 0 
L 603 0 
L 603 4863 
z
" transform="scale(0.015625)"/>
      </defs>
      <use xlink:href="#DejaVuSans-54"/>
      <use xlink:href="#DejaVuSans-6f" x="44.083984"/>
      <use xlink:href="#DejaVuSans-74" x="105.265625"/>
      <use xlink:href="#DejaVuSans-61" x="144.474609"/>
      <use xlink:href="#DejaVuSans-6c" x="205.753906"/>
      <use xlink:href="#DejaVuSans-20" x="233.537109"/>
      <use xlink:href="#DejaVuSans-45" x="265.324219"/>
      <use xlink:href="#DejaVuSans-6e" x="328.507812"/>
      <use xlink:href="#DejaVuSans-65" x="391.886719"/>
      <use xlink:href="#DejaVuSans-72" x="453.410156"/>
      <use xlink:href="#DejaVuSans-67" x="492.773438"/>
      <use xlink:href="#DejaVuSans-79" x="556.25"/>
     </g>
    </g>
    <g id="line2d_20">
     <path d="M 269.807813 62.336563 
L 279.807813 62.336563 
L 289.807813 62.336563 
" style="fill: none; stroke: #008000; stroke-width: 1.5; stroke-linecap: square"/>
    </g>
    <g id="text_19">
     <!-- Kinetic Energy -->
     <g transform="translate(297.807813 65.836563)scale(0.1 -0.1)">
      <defs>
       <path id="DejaVuSans-4b" d="M 628 4666 
L 1259 4666 
L 1259 2694 
L 3353 4666 
L 4166 4666 
L 1850 2491 
L 4331 0 
L 3500 0 
L 1259 2247 
L 1259 0 
L 628 0 
L 628 4666 
z
" transform="scale(0.015625)"/>
       <path id="DejaVuSans-63" d="M 3122 3366 
L 3122 2828 
Q 2878 2963 2633 3030 
Q 2388 3097 2138 3097 
Q 1578 3097 1268 2742 
Q 959 2388 959 1747 
Q 959 1106 1268 751 
Q 1578 397 2138 397 
Q 2388 397 2633 464 
Q 2878 531 3122 666 
L 3122 134 
Q 2881 22 2623 -34 
Q 2366 -91 2075 -91 
Q 1284 -91 818 406 
Q 353 903 353 1747 
Q 353 2603 823 3093 
Q 1294 3584 2113 3584 
Q 2378 3584 2631 3529 
Q 2884 3475 3122 3366 
z
" transform="scale(0.015625)"/>
      </defs>
      <use xlink:href="#DejaVuSans-4b"/>
      <use xlink:href="#DejaVuSans-69" x="65.576172"/>
      <use xlink:href="#DejaVuSans-6e" x="93.359375"/>
      <use xlink:href="#DejaVuSans-65" x="156.738281"/>
      <use xlink:href="#DejaVuSans-74" x="218.261719"/>
      <use xlink:href="#DejaVuSans-69" x="257.470703"/>
      <use xlink:href="#DejaVuSans-63" x="285.253906"/>
      <use xlink:href="#DejaVuSans-20" x="340.234375"/>
      <use xlink:href="#DejaVuSans-45" x="372.021484"/>
      <use xlink:href="#DejaVuSans-6e" x="435.205078"/>
      <use xlink:href="#DejaVuSans-65" x="498.583984"/>
      <use xlink:href="#DejaVuSans-72" x="560.107422"/>
      <use xlink:href="#DejaVuSans-67" x="599.470703"/>
      <use xlink:href="#DejaVuSans-79" x="662.947266"/>
     </g>
    </g>
    <g id="line2d_21">
     <path d="M 269.807813 77.014688 
L 279.807813 77.014688 
L 289.807813 77.014688 
" style="fill: none; stroke: #0000ff; stroke-width: 1.5; stroke-linecap: square"/>
    </g>
    <g id="text_20">
     <!-- Potential Energy -->
     <g transform="translate(297.807813 80.514688)scale(0.1 -0.1)">
      <use xlink:href="#DejaVuSans-50"/>
      <use xlink:href="#DejaVuSans-6f" x="56.677734"/>
      <use xlink:href="#DejaVuSans-74" x="117.859375"/>
      <use xlink:href="#DejaVuSans-65" x="157.068359"/>
      <use xlink:href="#DejaVuSans-6e" x="218.591797"/>
      <use xlink:href="#DejaVuSans-74" x="281.970703"/>
      <use xlink:href="#DejaVuSans-69" x="321.179688"/>
      <use xlink:href="#DejaVuSans-61" x="348.962891"/>
      <use xlink:href="#DejaVuSans-6c" x="410.242188"/>
      <use xlink:href="#DejaVuSans-20" x="438.025391"/>
      <use xlink:href="#DejaVuSans-45" x="469.8125"/>
      <use xlink:href="#DejaVuSans-6e" x="532.996094"/>
      <use xlink:href="#DejaVuSans-65" x="596.375"/>
      <use xlink:href="#DejaVuSans-72" x="657.898438"/>
      <use xlink:href="#DejaVuSans-67" x="697.261719"/>
      <use xlink:href="#DejaVuSans-79" x="760.738281"/>
     </g>
    </g>
   </g>
  </g>
 </g>
 <defs>
  <clipPath id="p9d77ee9522">
   <rect x="54" y="34.56" width="334.8" height="217.44"/>
  </clipPath>
 </defs>
</svg>
